<svg width="38" height="38" viewBox="0 0 38 38" fill="none" xmlns="http://www.w3.org/2000/svg">
<path fill-rule="evenodd" clip-rule="evenodd" d="M19.1053 0.5C8.67249 0.5 0.212891 8.99195 0.212891 19.4697C0.212891 27.849 5.62591 34.9587 13.1349 37.4673C14.0796 37.6416 14.4244 37.0559 14.4244 36.5532C14.4244 36.1027 14.4079 34.9101 14.3984 33.3274C9.14247 34.4738 8.03368 30.7844 8.03368 30.7844C7.1752 28.5936 5.93648 28.0103 5.93648 28.0103C4.22071 26.8331 6.06636 26.8567 6.06636 26.8567C7.96163 26.9907 8.95944 28.8117 8.95944 28.8117C10.6457 31.7103 13.3818 30.8733 14.4587 30.3873C14.6299 29.1614 15.1188 28.3257 15.6584 27.8514C11.4629 27.3725 7.05237 25.7459 7.05237 18.4774C7.05237 16.4063 7.78806 14.7133 8.99725 13.3867C8.80241 12.9066 8.15413 10.9789 9.18147 8.3672C9.18147 8.3672 10.7685 7.8574 14.3772 10.3115C15.8851 9.89059 17.5006 9.68075 19.1077 9.67245C20.7125 9.68075 22.3291 9.89059 23.8382 10.3115C27.4445 7.8574 29.028 8.3672 29.028 8.3672C30.0589 10.9789 29.4106 12.9066 29.2158 13.3867C30.4273 14.7133 31.1583 16.4063 31.1583 18.4774C31.1583 25.7637 26.7407 27.3677 22.5322 27.8372C23.21 28.4228 23.8146 29.5799 23.8146 31.3499C23.8146 33.8858 23.791 35.9308 23.791 36.5532C23.791 37.0606 24.1311 37.651 25.0899 37.4649C32.5919 34.9516 38.0001 27.8467 38.0001 19.4697C38.0001 8.99195 29.5405 0.5 19.1053 0.5Z" fill="white"/>
</svg>
